<svg width="58" height="11" viewBox="0 0 58 11" fill="none" xmlns="http://www.w3.org/2000/svg">
<path d="M0.0989631 8.01727V0.368371H1.71614V3.52429H4.99904V0.368371H6.61248V8.01727H4.99904V4.85762H1.71614V8.01727H0.0989631ZM9.55178 8.12558C9.18577 8.12558 8.8596 8.06209 8.57326 7.93511C8.28692 7.80563 8.06034 7.61516 7.89352 7.36368C7.72919 7.10971 7.64703 6.7935 7.64703 6.41504C7.64703 6.09633 7.70554 5.82867 7.82256 5.61205C7.93959 5.39543 8.09894 5.22114 8.30062 5.08918C8.5023 4.95721 8.73137 4.85762 8.98782 4.79039C9.24677 4.72317 9.51817 4.67586 9.80201 4.64847C10.1357 4.61361 10.4046 4.58124 10.6087 4.55136C10.8129 4.519 10.9611 4.47169 11.0532 4.40944C11.1453 4.34719 11.1914 4.25507 11.1914 4.13306V4.11066C11.1914 3.87412 11.1167 3.69111 10.9673 3.56164C10.8204 3.43216 10.6112 3.36743 10.3398 3.36743C10.0535 3.36743 9.82567 3.43092 9.65636 3.5579C9.48704 3.6824 9.375 3.83926 9.32022 4.02849L7.84871 3.90898C7.9234 3.56039 8.0703 3.25912 8.28941 3.00515C8.50852 2.74869 8.79112 2.55199 9.13722 2.41505C9.4858 2.27562 9.88916 2.2059 10.3473 2.2059C10.666 2.2059 10.971 2.24325 11.2623 2.31794C11.5561 2.39264 11.8163 2.50842 12.0429 2.66528C12.272 2.82214 12.4525 3.02382 12.5845 3.27032C12.7164 3.51433 12.7824 3.80689 12.7824 4.148V8.01727H11.2735V7.22176H11.2287C11.1366 7.40103 11.0133 7.55914 10.859 7.69608C10.7046 7.83053 10.5191 7.93635 10.3025 8.01354C10.0859 8.08823 9.83563 8.12558 9.55178 8.12558ZM10.0074 7.02755C10.2415 7.02755 10.4481 6.98148 10.6274 6.88936C10.8067 6.79474 10.9474 6.66776 11.0494 6.50841C11.1515 6.34906 11.2026 6.16854 11.2026 5.96686V5.35808C11.1528 5.39045 11.0843 5.42033 10.9972 5.44772C10.9125 5.47262 10.8166 5.49627 10.7096 5.51868C10.6025 5.5386 10.4954 5.55727 10.3884 5.5747C10.2813 5.58964 10.1842 5.60334 10.0971 5.61579C9.91032 5.64318 9.74724 5.68675 9.6078 5.74651C9.46837 5.80626 9.36006 5.88718 9.28287 5.98927C9.20569 6.08886 9.1671 6.21336 9.1671 6.36275C9.1671 6.57937 9.24553 6.74495 9.40239 6.85948C9.56174 6.97152 9.76342 7.02755 10.0074 7.02755ZM14.0168 8.01727V2.2806H15.5331V3.29273H15.6003C15.7198 2.9566 15.919 2.69143 16.1979 2.49722C16.4768 2.30301 16.8104 2.2059 17.1988 2.2059C17.5922 2.2059 17.9271 2.30425 18.2035 2.50095C18.4799 2.69516 18.6641 2.95909 18.7562 3.29273H18.816C18.933 2.96407 19.1447 2.70139 19.4509 2.50469C19.7597 2.3055 20.1244 2.2059 20.5452 2.2059C21.0805 2.2059 21.515 2.37646 21.8487 2.71757C22.1848 3.05619 22.3529 3.53674 22.3529 4.15921V8.01727H20.7656V4.47293C20.7656 4.15423 20.6809 3.9152 20.5116 3.75585C20.3423 3.5965 20.1306 3.51682 19.8767 3.51682C19.5879 3.51682 19.3625 3.60895 19.2007 3.7932C19.0388 3.97496 18.9579 4.21523 18.9579 4.51402V8.01727H17.4154V4.43932C17.4154 4.15796 17.3345 3.93387 17.1727 3.76705C17.0133 3.60023 16.8029 3.51682 16.5415 3.51682C16.3647 3.51682 16.2054 3.56164 16.0634 3.65127C15.924 3.73842 15.8132 3.86167 15.731 4.02102C15.6489 4.17788 15.6078 4.36213 15.6078 4.57377V8.01727H14.0168ZM23.6395 8.01727V0.368371H25.2305V3.24418H25.2791C25.3488 3.08981 25.4496 2.93294 25.5816 2.77359C25.7161 2.61175 25.8904 2.4773 26.1045 2.37023C26.3211 2.26068 26.59 2.2059 26.9112 2.2059C27.3295 2.2059 27.7154 2.31545 28.069 2.53456C28.4226 2.75118 28.7052 3.0786 28.9168 3.51682C29.1284 3.95255 29.2343 4.49908 29.2343 5.1564C29.2343 5.7963 29.1309 6.33661 28.9243 6.77731C28.7201 7.21553 28.4412 7.54793 28.0877 7.77451C27.7366 7.9986 27.3432 8.11064 26.9075 8.11064C26.5987 8.11064 26.336 8.0596 26.1194 7.95752C25.9053 7.85543 25.7298 7.7272 25.5928 7.57283C25.4559 7.41597 25.3513 7.25786 25.2791 7.09851H25.2081V8.01727H23.6395ZM25.1969 5.14893C25.1969 5.49005 25.2442 5.78759 25.3388 6.04156C25.4335 6.29552 25.5704 6.49347 25.7497 6.63539C25.9289 6.77482 26.1468 6.84454 26.4033 6.84454C26.6622 6.84454 26.8813 6.77358 27.0606 6.63166C27.2399 6.48724 27.3756 6.28805 27.4677 6.03409C27.5623 5.77763 27.6096 5.48258 27.6096 5.14893C27.6096 4.81778 27.5636 4.52647 27.4714 4.27499C27.3793 4.02351 27.2436 3.82681 27.0643 3.68489C26.8851 3.54296 26.6647 3.472 26.4033 3.472C26.1443 3.472 25.9252 3.54047 25.7459 3.67742C25.5692 3.81436 25.4335 4.00857 25.3388 4.26005C25.2442 4.51153 25.1969 4.80782 25.1969 5.14893ZM33.9747 5.5747V2.2806H35.5657V8.01727H34.0382V6.97526H33.9784C33.8489 7.31139 33.6336 7.58154 33.3323 7.78571C33.0335 7.98988 32.6687 8.09197 32.238 8.09197C31.8545 8.09197 31.5172 8.00482 31.2258 7.83053C30.9345 7.65624 30.7067 7.4085 30.5424 7.0873C30.3805 6.76611 30.2984 6.38142 30.2959 5.93325V2.2806H31.8869V5.6494C31.8894 5.98802 31.9803 6.25568 32.1596 6.45239C32.3388 6.64909 32.5791 6.74744 32.8804 6.74744C33.0721 6.74744 33.2514 6.70386 33.4182 6.61672C33.585 6.52708 33.7195 6.39512 33.8215 6.22083C33.9261 6.04654 33.9772 5.83116 33.9747 5.5747ZM36.8383 8.01727V2.2806H38.3808V3.28153H38.4406C38.5452 2.92547 38.7207 2.65657 38.9672 2.47481C39.2137 2.29056 39.4975 2.19843 39.8187 2.19843C39.8984 2.19843 39.9843 2.20341 40.0764 2.21337C40.1686 2.22333 40.2495 2.23702 40.3192 2.25445V3.66621C40.2445 3.6438 40.1412 3.62388 40.0092 3.60646C39.8772 3.58903 39.7565 3.58031 39.6469 3.58031C39.4129 3.58031 39.2037 3.63135 39.0195 3.73344C38.8377 3.83303 38.6933 3.97247 38.5862 4.15174C38.4817 4.33101 38.4294 4.53767 38.4294 4.77172V8.01727H36.8383ZM43.4592 10.288C42.9438 10.288 42.5019 10.2171 42.1334 10.0752C41.7674 9.93572 41.4761 9.74525 41.2594 9.50373C41.0428 9.26221 40.9021 8.99081 40.8374 8.68954L42.3089 8.49159C42.3537 8.60613 42.4247 8.71319 42.5218 8.81279C42.6189 8.91238 42.7471 8.99206 42.9065 9.05182C43.0683 9.11406 43.265 9.14519 43.4966 9.14519C43.8427 9.14519 44.1278 9.06053 44.3519 8.89122C44.5784 8.7244 44.6917 8.44429 44.6917 8.05089V7.0014H44.6245C44.5548 7.16076 44.4502 7.31139 44.3108 7.45332C44.1713 7.59524 43.9921 7.71102 43.773 7.80065C43.5539 7.89029 43.2924 7.93511 42.9887 7.93511C42.5579 7.93511 42.1657 7.83551 41.8122 7.63632C41.4611 7.43464 41.181 7.12714 40.9719 6.71382C40.7652 6.29801 40.6619 5.77265 40.6619 5.13773C40.6619 4.48787 40.7677 3.94508 40.9793 3.50935C41.191 3.07362 41.4723 2.74745 41.8234 2.53083C42.177 2.31421 42.5641 2.2059 42.9849 2.2059C43.3061 2.2059 43.575 2.26068 43.7916 2.37023C44.0083 2.4773 44.1825 2.61175 44.3145 2.77359C44.449 2.93294 44.5523 3.08981 44.6245 3.24418H44.6843V2.2806H46.2641V8.0733C46.2641 8.56131 46.1446 8.96965 45.9055 9.29831C45.6665 9.62698 45.3354 9.87348 44.9121 10.0378C44.4913 10.2046 44.007 10.288 43.4592 10.288ZM43.4929 6.73997C43.7493 6.73997 43.9659 6.67647 44.1427 6.54949C44.322 6.42002 44.4589 6.23577 44.5535 5.99674C44.6506 5.75522 44.6992 5.46639 44.6992 5.13026C44.6992 4.79413 44.6519 4.50281 44.5573 4.25631C44.4627 4.00733 44.3257 3.81436 44.1464 3.67742C43.9672 3.54047 43.7493 3.472 43.4929 3.472C43.2314 3.472 43.0111 3.54296 42.8318 3.68489C42.6525 3.82432 42.5168 4.01853 42.4247 4.26752C42.3326 4.51651 42.2865 4.80409 42.2865 5.13026C42.2865 5.46141 42.3326 5.74775 42.4247 5.98927C42.5193 6.2283 42.655 6.41379 42.8318 6.54576C43.0111 6.67523 43.2314 6.73997 43.4929 6.73997ZM50.1446 8.12932C49.5545 8.12932 49.0465 8.0098 48.6208 7.77078C48.1975 7.52926 47.8713 7.18814 47.6422 6.74744C47.4132 6.30424 47.2986 5.78012 47.2986 5.17508C47.2986 4.58498 47.4132 4.06708 47.6422 3.6214C47.8713 3.17571 48.1937 2.82837 48.6095 2.57938C49.0278 2.33039 49.5184 2.2059 50.0811 2.2059C50.4595 2.2059 50.8118 2.2669 51.138 2.38891C51.4667 2.50842 51.753 2.68894 51.997 2.93045C52.2435 3.17197 52.4352 3.47574 52.5722 3.84175C52.7091 4.20527 52.7776 4.63104 52.7776 5.11906V5.55603H47.9335V4.57004H51.2799C51.2799 4.34097 51.2301 4.13804 51.1305 3.96126C51.031 3.78448 50.8928 3.64629 50.716 3.5467C50.5417 3.44461 50.3388 3.39357 50.1072 3.39357C49.8657 3.39357 49.6516 3.44959 49.4648 3.56164C49.2806 3.67119 49.1362 3.81934 49.0316 4.00608C48.927 4.19033 48.8735 4.39575 48.871 4.62233V5.55976C48.871 5.84361 48.9233 6.08886 49.0278 6.29552C49.1349 6.50218 49.2855 6.66153 49.4798 6.77358C49.674 6.88562 49.9043 6.94165 50.1707 6.94165C50.3475 6.94165 50.5093 6.91675 50.6562 6.86695C50.8031 6.81715 50.9289 6.74246 51.0334 6.64286C51.138 6.54327 51.2177 6.42126 51.2725 6.27685L52.744 6.37395C52.6693 6.72752 52.5162 7.03626 52.2846 7.30019C52.0555 7.56163 51.7592 7.7658 51.3957 7.9127C51.0347 8.05711 50.6176 8.12932 50.1446 8.12932ZM53.8159 8.01727V2.2806H55.3584V3.28153H55.4181C55.5227 2.92547 55.6982 2.65657 55.9447 2.47481C56.1912 2.29056 56.4751 2.19843 56.7963 2.19843C56.8759 2.19843 56.9618 2.20341 57.054 2.21337C57.1461 2.22333 57.227 2.23702 57.2967 2.25445V3.66621C57.222 3.6438 57.1187 3.62388 56.9867 3.60646C56.8548 3.58903 56.734 3.58031 56.6245 3.58031C56.3904 3.58031 56.1813 3.63135 55.997 3.73344C55.8153 3.83303 55.6708 3.97247 55.5638 4.15174C55.4592 4.33101 55.4069 4.53767 55.4069 4.77172V8.01727H53.8159Z" fill="#D42201"/>
</svg>
